<svg xmlns="http://www.w3.org/2000/svg" xmlns:xlink="http://www.w3.org/1999/xlink" version="1.1" x="0px" y="0px" viewBox="0 0 20 25" enable-background="new 0 0 20 20" xml:space="preserve"><path d="M9.98,2.463c1.209,0,2.194,1.032,2.194,2.301v4.987c0,1.268-0.984,2.3-2.194,2.3s-2.193-1.032-2.193-2.3V4.764  C7.787,3.496,8.771,2.463,9.98,2.463 M9.98,1C7.96,1,6.324,2.686,6.324,4.764v4.987c0,2.08,1.637,3.763,3.656,3.763  c2.019,0,3.656-1.684,3.656-3.763V4.764C13.636,2.686,11.999,1,9.98,1L9.98,1z"/><path d="M15.911,10.082c0-0.404-0.327-0.731-0.731-0.731c-0.403,0-0.73,0.328-0.73,0.731c0,2.588-1.996,4.692-4.449,4.692  s-4.449-2.104-4.449-4.692c0-0.404-0.328-0.731-0.731-0.731s-0.731,0.328-0.731,0.731c0,3.135,2.265,5.727,5.18,6.102v2.085  C9.269,18.673,9.596,19,10,19s0.731-0.327,0.731-0.731v-2.085C13.646,15.809,15.911,13.217,15.911,10.082z"/><text x="0" y="35" fill="#000000" font-size="5px" font-weight="bold" font-family="'Helvetica Neue', Helvetica, Arial-Unicode, Arial, Sans-serif">Created by Luca L</text><text x="0" y="40" fill="#000000" font-size="5px" font-weight="bold" font-family="'Helvetica Neue', Helvetica, Arial-Unicode, Arial, Sans-serif">from the Noun Project</text></svg>